<svg xmlns="http://www.w3.org/2000/svg" xmlns:xlink="http://www.w3.org/1999/xlink" version="1.1" x="0px" y="0px" viewBox="0 0 66 82.5" style="enable-background:new 0 0 66 66;" xml:space="preserve"><path d="M53.05,39.33c-0.94,1.42-1.77,2.54-1.62,2.67c0.14,0.13,1.24-0.82,2.22-2.29c0.98-1.47,1.43-2.83,1.25-2.9  C54.72,36.73,54,37.92,53.05,39.33z"/><path d="M56.74,37.1c-0.21-0.03-0.58,1.48-1.46,3.16c-0.87,1.69-1.9,2.88-1.75,3.02c0.12,0.14,1.46-0.91,2.38-2.71  C56.85,38.78,56.92,37.11,56.74,37.1z"/><path d="M11.36,20.88c-1.09,2.37-1.1,4.51-0.92,4.52c0.21,0.02,0.53-1.98,1.57-4.24c1.01-2.26,2.33-3.85,2.17-3.98  C14.05,17.05,12.43,18.5,11.36,20.88z"/><path d="M12.08,16.06c-0.16-0.11-0.93,0.63-1.72,1.66c-0.79,1.03-1.3,1.96-1.15,2.08s0.93-0.63,1.72-1.66  C11.72,17.11,12.23,16.18,12.08,16.06z"/><path d="M53.66,28.99c0.58-5.12-1.2-10.19-5-14.25l-0.2-0.21c-0.92-0.99-1.59-1.7-3.07-2.41c-0.49-0.23-1.28-0.38-2.13-0.54  c-0.68-0.13-1.82-0.34-2.05-0.52c-0.29-0.29-0.76-0.31-1.06-0.03c-0.3,0.28-0.31,0.74-0.03,1.03c0,0,0,0,0,0  c1.82,1.87,2.29,4.58,2.69,7.67c0.33,2.56-1.5,4.69-3.41,5.08c-1.55,0.32-2.76-0.57-3.34-2.43c-0.5-1.62-0.49-3.53-0.48-5.55  c0.02-2.72,0.04-5.53-1.29-7.76c-1.12-1.88-2.82-3.53-5.2-5.05c-0.5-0.32-1.41-0.66-2.46-1.07c-1.08-0.41-3.1-1.18-3.37-1.57  c-0.19-0.35-0.65-0.49-1.01-0.3c-0.37,0.19-0.5,0.63-0.31,0.98c0,0,0,0,0,0c2.58,4.72-0.53,9.56-3.28,13.83  c-0.36,0.56-0.72,1.11-1.05,1.65c-2.32,3.75-4.78,8.17-4.58,13.25c0.23,5.79,3.29,10.38,8.6,12.93c0.89,0.43,1.82,0.78,2.79,1.07  c-1.16,1.03-1.86,2.46-1.88,3.88c-0.03,1.84,1.12,3.57,2.78,4.22c0.85,0.33,1.74,0.37,2.57,0.38c0.18,0,0.37,0,0.55,0  c0.55,0,1.09-0.02,1.64-0.04c0.01,0.07,0.01,0.13,0.03,0.2l3.75,9.9c0.16,0.42,0.45,1.2,1.22,1.51c0.25,0.11,0.51,0.14,0.75,0.14  c0.23,0,0.43-0.03,0.6-0.05l4.54-0.64c0.59-0.08,2.16-0.31,2.63-1.55c0.17-0.45,0.13-0.91,0.11-1.25c-0.13-1.55-0.32-3.56-0.52-5.57  c-0.18-1.78-0.35-3.54-0.47-4.99c0.48-0.16,0.96-0.32,1.43-0.5c1.56-0.58,3.24-1.4,3.9-3.02c0.88-2.17-0.55-4.33-1.98-6.01  C50.41,38.3,53.11,33.91,53.66,28.99z M41.68,56.08c0.2,2,0.39,4.01,0.52,5.54c0.02,0.22,0.04,0.48-0.02,0.63  c-0.16,0.43-1.12,0.56-1.44,0.61l-4.54,0.64c-0.19,0.03-0.44,0.06-0.55,0.02c-0.17-0.07-0.33-0.5-0.4-0.68l-3.67-9.68  c3.26-0.23,6.52-0.82,9.64-1.75C41.36,52.81,41.52,54.44,41.68,56.08z M46.65,46.9c-0.45,1.1-1.79,1.73-3.05,2.2  c-4.96,1.85-10.39,2.8-15.7,2.73c-0.7-0.01-1.43-0.04-2.04-0.27c-1.08-0.42-1.86-1.62-1.84-2.85c0.02-1.19,0.71-2.4,1.82-3.17  c0.11-0.08,0.18-0.18,0.24-0.29c1.77,0.4,3.62,0.6,5.49,0.6c4.67,0,9.42-1.24,13.25-3.59C46.01,43.64,47.26,45.4,46.65,46.9z   M44.82,40.52c-6.21,4.26-15.9,5.08-22.54,1.9c-3.39-1.62-7.49-4.97-7.76-11.68c-0.19-4.68,2.05-8.71,4.37-12.44  c0.33-0.53,0.68-1.08,1.04-1.63c2.45-3.8,5.41-8.41,4.19-13.14c0.56,0.24,1.22,0.5,1.96,0.78c0.9,0.34,1.82,0.7,2.19,0.93  C30.45,6.64,32,8.13,32.99,9.8c1.13,1.89,1.11,4.5,1.09,7.02c-0.01,2.04-0.03,4.15,0.54,5.98c0.96,3.1,3.26,3.81,5.09,3.43  c2.55-0.52,5.03-3.23,4.59-6.69c-0.25-1.97-0.57-4.49-1.73-6.62c0.13,0.03,0.26,0.05,0.4,0.08c0.68,0.13,1.44,0.27,1.75,0.42  c1.22,0.58,1.75,1.15,2.62,2.08l0.2,0.21c3.51,3.75,5.15,8.41,4.62,13.11C51.65,33.47,49.04,37.63,44.82,40.52z"/><text x="0" y="81" fill="#000000" font-size="5px" font-weight="bold" font-family="'Helvetica Neue', Helvetica, Arial-Unicode, Arial, Sans-serif">Created by Design Circle</text><text x="0" y="86" fill="#000000" font-size="5px" font-weight="bold" font-family="'Helvetica Neue', Helvetica, Arial-Unicode, Arial, Sans-serif">from the Noun Project</text></svg>