<?xml version="1.0" encoding="UTF-8" standalone="no"?>
<svg
   version="1.1"
   x="0px"
   y="0px"
   viewBox="0 0 40.748978 63.985161"
   xml:space="preserve"
   id="svg6"
   sodipodi:docname="torch-icon.svg"
   width="40.748978"
   height="63.985161"
   inkscape:version="1.3 (0e150ed, 2023-07-21)"
   xmlns:inkscape="http://www.inkscape.org/namespaces/inkscape"
   xmlns:sodipodi="http://sodipodi.sourceforge.net/DTD/sodipodi-0.dtd"
   xmlns="http://www.w3.org/2000/svg"
   xmlns:svg="http://www.w3.org/2000/svg"><defs
     id="defs6" /><sodipodi:namedview
     id="namedview6"
     pagecolor="#ffffff"
     bordercolor="#999999"
     borderopacity="1"
     inkscape:showpageshadow="2"
     inkscape:pageopacity="0"
     inkscape:pagecheckerboard="false"
     inkscape:deskcolor="#d1d1d1"
     inkscape:zoom="5.3489155"
     inkscape:cx="-25.519192"
     inkscape:cy="27.108299"
     inkscape:window-width="1680"
     inkscape:window-height="997"
     inkscape:window-x="0"
     inkscape:window-y="25"
     inkscape:window-maximized="0"
     inkscape:current-layer="svg6" /><path
     d="m 40.641432,27.99516 c 0.58,-5.12 -1.2,-10.19 -5,-14.25 l -0.2,-0.21 c -0.92,-0.99 -1.59,-1.7 -3.07,-2.41 -0.49,-0.23 -1.28,-0.38 -2.13,-0.54 -0.68,-0.13 -1.82,-0.34 -2.05,-0.52 -0.29,-0.29 -0.76,-0.31 -1.06,-0.03 -0.3,0.28 -0.31,0.74 -0.03,1.03 0,0 0,0 0,0 1.82,1.87 2.29,4.58 2.69,7.67 0.33,2.56 -1.5,4.69 -3.41,5.08 -1.55,0.32 -2.76,-0.57 -3.34,-2.43 -0.5,-1.62 -0.49,-3.53 -0.48,-5.55 0.02,-2.72 0.04,-5.53 -1.29,-7.76 -1.12,-1.88 -2.82,-3.53 -5.2,-5.05 -0.5,-0.32 -1.41,-0.66 -2.46,-1.07 -1.08,-0.41 -3.1,-1.17999999 -3.37,-1.56999999 -0.19,-0.35 -0.6500004,-0.49 -1.0100004,-0.3 -0.37,0.19 -0.5,0.63 -0.31,0.97999999 0,0 0,0 0,0 2.5800004,4.72 -0.53,9.56 -3.28,13.83 -0.36,0.56 -0.72,1.11 -1.05,1.65 -2.32,3.75 -4.78000004,8.17 -4.58000004,13.25 0.23,5.79 3.29000004,10.38 8.60000004,12.93 0.89,0.43 1.8200004,0.78 2.7900004,1.07 -1.16,1.03 -1.8600004,2.46 -1.8800004,3.88 -0.03,1.84 1.1200004,3.57 2.7800004,4.22 0.85,0.33 1.74,0.37 2.57,0.38 0.18,0 0.37,0 0.55,0 0.55,0 1.09,-0.02 1.64,-0.04 0.01,0.07 0.01,0.13 0.03,0.2 l 3.75,9.9 c 0.16,0.42 0.45,1.2 1.22,1.51 0.25,0.11 0.51,0.14 0.75,0.14 0.23,0 0.43,-0.03 0.6,-0.05 l 4.54,-0.64 c 0.59,-0.08 2.16,-0.31 2.63,-1.55 0.17,-0.45 0.13,-0.91 0.11,-1.25 -0.13,-1.55 -0.32,-3.56 -0.52,-5.57 -0.18,-1.78 -0.35,-3.54 -0.47,-4.99 0.48,-0.16 0.96,-0.32 1.43,-0.5 1.56,-0.58 3.24,-1.4 3.9,-3.02 0.88,-2.17 -0.55,-4.33 -1.98,-6.01 4.34,-3.1 7.04,-7.49 7.59,-12.41 z m -11.98,27.09 c 0.2,2 0.39,4.01 0.52,5.54 0.02,0.22 0.04,0.48 -0.02,0.63 -0.16,0.43 -1.12,0.56 -1.44,0.61 l -4.54,0.64 c -0.19,0.03 -0.44,0.06 -0.55,0.02 -0.17,-0.07 -0.33,-0.5 -0.4,-0.68 l -3.67,-9.68 c 3.26,-0.23 6.52,-0.82 9.64,-1.75 0.14,1.4 0.3,3.03 0.46,4.67 z m 4.97,-9.18 c -0.45,1.1 -1.79,1.73 -3.05,2.2 -4.96,1.85 -10.39,2.8 -15.7,2.73 -0.7,-0.01 -1.43,-0.04 -2.04,-0.27 -1.08,-0.42 -1.86,-1.62 -1.84,-2.85 0.02,-1.19 0.71,-2.4 1.82,-3.17 0.11,-0.08 0.18,-0.18 0.24,-0.29 1.77,0.4 3.62,0.6 5.49,0.6 4.67,0 9.42,-1.24 13.25,-3.59 1.19,1.38 2.44,3.14 1.83,4.64 z m -1.83,-6.38 c -6.21,4.26 -15.9,5.08 -22.5400004,1.9 -3.39,-1.62 -7.49,-4.97 -7.76,-11.68 -0.19,-4.68 2.05,-8.71 4.37,-12.44 0.33,-0.53 0.68,-1.08 1.04,-1.63 2.45,-3.8 5.4100004,-8.41 4.1900004,-13.14 0.56,0.24 1.22,0.5 1.96,0.78 0.9,0.34 1.82,0.7 2.19,0.93 2.18,1.4 3.73,2.89 4.72,4.56 1.13,1.89 1.11,4.5 1.09,7.02 -0.01,2.04 -0.03,4.15 0.54,5.98 0.96,3.1 3.26,3.81 5.09,3.43 2.55,-0.52 5.03,-3.23 4.59,-6.69 -0.25,-1.97 -0.57,-4.49 -1.73,-6.62 0.13,0.03 0.26,0.05 0.4,0.08 0.68,0.13 1.44,0.27 1.75,0.42 1.22,0.58 1.75,1.15 2.62,2.08 l 0.2,0.21 c 3.51,3.75 5.15,8.41 4.62,13.11 -0.51,4.65 -3.12,8.81 -7.34,11.7 z"
     id="path5"
     inkscape:label="path5"
     style="stroke:none;fill:#e9724c;fill-opacity:1" /></svg>
